<svg width="24" height="24" viewBox="0 0 24 24" fill="none" xmlns="http://www.w3.org/2000/svg">
<path d="M18.3536 12.3535C18.5488 12.1583 18.5488 11.8417 18.3536 11.6464L15.1716 8.46444C14.9763 8.26918 14.6597 8.26918 14.4645 8.46444C14.2692 8.6597 14.2692 8.97628 14.4645 9.17155L17.2929 12L14.4645 14.8284C14.2692 15.0237 14.2692 15.3402 14.4645 15.5355C14.6597 15.7308 14.9763 15.7308 15.1716 15.5355L18.3536 12.3535ZM6.5 7.99997C6.5 7.72383 6.27614 7.49997 6 7.49997C5.72386 7.49997 5.5 7.72383 5.5 7.99997L6.5 7.99997ZM18 11.5C15.7514 11.5 13.8504 11.5627 12.3231 11.5781C10.7731 11.5938 9.60305 11.5607 8.72306 11.3847C7.85552 11.2112 7.34103 10.9128 7.02047 10.4498C6.68578 9.96631 6.5 9.21607 6.5 7.99997L5.5 7.99997C5.5 9.28389 5.68922 10.2837 6.19828 11.019C6.72147 11.7747 7.51948 12.1638 8.52694 12.3653C9.52195 12.5643 10.7894 12.5937 12.3332 12.5781C13.8996 12.5623 15.7486 12.5 18 12.5L18 11.5Z" fill="#F2F2F2"/>
</svg>
