<svg width="24" height="24" viewBox="0 0 24 24" fill="none" xmlns="http://www.w3.org/2000/svg">
<path d="M7.14645 7.14647C6.95118 7.34174 6.95118 7.65832 7.14645 7.85358L10.3284 11.0356C10.5237 11.2308 10.8403 11.2308 11.0355 11.0356C11.2308 10.8403 11.2308 10.5237 11.0355 10.3285L8.20711 7.50003L11.0355 4.6716C11.2308 4.47634 11.2308 4.15976 11.0355 3.96449C10.8403 3.76923 10.5237 3.76923 10.3284 3.96449L7.14645 7.14647ZM19 11.5C19 11.7762 19.2239 12 19.5 12C19.7761 12 20 11.7762 20 11.5H19ZM7.5 8.00003C9.74857 8.00003 11.6496 7.9373 13.1769 7.92187C14.7269 7.90621 15.897 7.93931 16.7769 8.11531C17.6445 8.28881 18.159 8.58721 18.4795 9.05025C18.8142 9.53369 19 10.2839 19 11.5H20C20 10.2161 19.8108 9.21635 19.3017 8.48104C18.7785 7.72532 17.9805 7.33622 16.9731 7.13473C15.978 6.93573 14.7106 6.90633 13.1668 6.92192C11.6004 6.93775 9.75143 7.00003 7.5 7.00003V8.00003Z" fill="#F2F2F2"/>
<path d="M17.8536 16.8535C18.0488 16.6583 18.0488 16.3417 17.8536 16.1464L14.6716 12.9644C14.4763 12.7692 14.1597 12.7692 13.9645 12.9644C13.7692 13.1597 13.7692 13.4763 13.9645 13.6715L16.7929 16.5L13.9645 19.3284C13.7692 19.5237 13.7692 19.8402 13.9645 20.0355C14.1597 20.2308 14.4763 20.2308 14.6716 20.0355L17.8536 16.8535ZM6 12.5C6 12.2238 5.77614 12 5.5 12C5.22386 12 5 12.2238 5 12.5L6 12.5ZM17.5 16C15.2514 16 13.3504 16.0627 11.8231 16.0781C10.2731 16.0938 9.10305 16.0607 8.22306 15.8847C7.35552 15.7112 6.84103 15.4128 6.52047 14.9498C6.18578 14.4663 6 13.7161 6 12.5L5 12.5C5 13.7839 5.18922 14.7837 5.69828 15.519C6.22147 16.2747 7.01948 16.6638 8.02694 16.8653C9.02195 17.0643 10.2894 17.0937 11.8332 17.0781C13.3996 17.0623 15.2486 17 17.5 17L17.5 16Z" fill="#F2F2F2"/>
</svg>
