<svg width="24" height="24" viewBox="0 0 24 24" fill="none" xmlns="http://www.w3.org/2000/svg">
<path d="M4.5 14.5C6 11 8.5 9.5 12 9.5C15.5 9.5 18 11 19.5 14.5" stroke="#F2F2F2" stroke-linecap="round"/>
<path d="M4 5.5C4 5.22386 3.77614 5 3.5 5C3.22386 5 3 5.22386 3 5.5H4ZM5.5 9C5.77614 9 6 8.77614 6 8.5C6 8.22386 5.77614 8 5.5 8V9ZM3 5.5C3 7.63333 4.1 9 5.5 9V8C4.9 8 4 7.36667 4 5.5H3Z" fill="#F2F2F2"/>
<path d="M20 5.5C20 5.22386 20.2239 5 20.5 5C20.7761 5 21 5.22386 21 5.5H20ZM18.5 9C18.2239 9 18 8.77614 18 8.5C18 8.22386 18.2239 8 18.5 8V9ZM21 5.5C21 7.63333 19.9 9 18.5 9V8C19.1 8 20 7.36667 20 5.5H21Z" fill="#F2F2F2"/>
<path d="M8.5 3.5C8.5 5.5 8.5 6.5 9.5 6.5" stroke="#F2F2F2" stroke-linecap="round"/>
<path d="M15.5 3.5C15.5 5.5 15.5 6.5 14.5 6.5" stroke="#F2F2F2" stroke-linecap="round"/>
<circle cx="12" cy="15" r="2" fill="#F2F2F2"/>
</svg>
