<svg width="24" height="24" viewBox="0 0 24 24" fill="none" xmlns="http://www.w3.org/2000/svg">
<path d="M19 15.5C19 15.2239 18.7761 15 18.5 15C18.2239 15 18 15.2239 18 15.5H19ZM20.5 19C20.7761 19 21 18.7761 21 18.5C21 18.2239 20.7761 18 20.5 18V19ZM18 15.5C18 16.518 18.1225 17.3894 18.5135 18.015C18.9383 18.6948 19.6213 19 20.5 19V18C19.8787 18 19.5617 17.8052 19.3615 17.485C19.1275 17.1106 19 16.482 19 15.5H18Z" fill="#F2F2F2"/>
<path d="M5 15.5C5 15.2239 5.22386 15 5.5 15C5.77614 15 6 15.2239 6 15.5L5 15.5ZM3.5 19C3.22386 19 3 18.7761 3 18.5C3 18.2239 3.22386 18 3.5 18L3.5 19ZM6 15.5C6 16.518 5.8775 17.3894 5.4865 18.015C5.06165 18.6948 4.37871 19 3.5 19L3.5 18C4.12129 18 4.43835 17.8052 4.6385 17.485C4.8725 17.1106 5 16.482 5 15.5L6 15.5Z" fill="#F2F2F2"/>
<path d="M8.5 20.5C9.5 20.5 9.5 19 9.5 17.5" stroke="#F2F2F2" stroke-linecap="round"/>
<path d="M15.5 20.5C14.5 20.5 14.5 19 14.5 17.5" stroke="#F2F2F2" stroke-linecap="round"/>
<path d="M19.5 9.5C18 13 15.5 14.5 12 14.5C8.5 14.5 6 13 4.5 9.5" stroke="#F2F2F2" stroke-linecap="round"/>
</svg>
