<svg width="24" height="24" viewBox="0 0 24 24" fill="none" xmlns="http://www.w3.org/2000/svg">
<path d="M16.5 10.268L16.25 10.701L17 11.134V10.268H16.5ZM17.5 8.00001L17.5 8.50001H17.5V8.00001ZM18.5 9.00001L19 9.00001V9.00001H18.5ZM18.5 15L18 15V15H18.5ZM16.5 13.7321H17V12.866L16.25 13.2991L16.5 13.7321ZM9 18.0622L9.25 18.4952L9.25 18.4952L9 18.0622ZM9 5.93783L8.75 6.37085L8.75 6.37085L9 5.93783ZM17 10.268V9.00001H16V10.268H17ZM17 9.00001C17 8.72387 17.2239 8.50001 17.5 8.50001L17.5 7.50001C16.6716 7.50001 16 8.17158 16 9.00001H17ZM17.5 8.50001C17.7761 8.50001 18 8.72387 18 9.00001H19C19 8.17158 18.3284 7.50001 17.5 7.50001V8.50001ZM18 9.00001L18 15L19 15L19 9.00001L18 9.00001ZM18 15C18 15.2762 17.7761 15.5 17.5 15.5V16.5C18.3284 16.5 19 15.8284 19 15H18ZM17.5 15.5C17.2239 15.5 17 15.2762 17 15H16C16 15.8284 16.6716 16.5 17.5 16.5V15.5ZM17 15V13.7321H16V15H17ZM16.25 13.2991L8.75 17.6292L9.25 18.4952L16.75 14.1651L16.25 13.2991ZM8.75 17.6292C8.41667 17.8216 8 17.5811 8 17.1962H7C7 18.3509 8.25 19.0726 9.25 18.4952L8.75 17.6292ZM8 17.1962V6.80386H7V17.1962H8ZM8 6.80386C8 6.41896 8.41667 6.1784 8.75 6.37085L9.25 5.50482C8.25 4.92747 7 5.64916 7 6.80386H8ZM8.75 6.37085L16.25 10.701L16.75 9.83495L9.25 5.50482L8.75 6.37085Z" fill="#F2F2F2"/>
</svg>
